<svg width="110" height="44" viewBox="0 0 110 44" fill="none" xmlns="http://www.w3.org/2000/svg">
<g id="Logo" clip-path="url(#clip0_938_1990)">
<g id="Group">
<g id="Group_2">
<path id="Vector" d="M30.4471 28.5549V1.8838C30.4471 1.38452 30.0459 0.975586 29.5456 0.975586H3.07217C2.2698 0.975586 1.86862 1.95037 2.43499 2.52574L28.9084 29.1969C29.4748 29.7675 30.4471 29.3633 30.4471 28.5549Z" fill="white"/>
<path id="Vector_2" d="M1.53394 28.203L12.3376 17.3187C12.6869 16.9668 12.6869 16.3914 12.3376 16.0348L1.53394 5.15523C0.967562 4.58463 0 4.98881 0 5.79717V27.5611C0 28.3694 0.967562 28.7736 1.53394 28.203Z" fill="white"/>
<path id="Vector_3" d="M26.0629 30.1004L15.2593 19.2161C14.91 18.8642 14.3389 18.8642 13.9849 19.2161L3.18597 30.1004C2.61959 30.671 3.02078 31.6458 3.82315 31.6458H25.4257C26.2281 31.6458 26.6293 30.671 26.0629 30.1004Z" fill="white"/>
</g>
<g id="Group_3">
<path id="Vector_4" d="M35.7285 30.7659V2.01677C35.7285 1.52699 36.1203 1.13232 36.6064 1.13232H48.1935C50.0956 1.13232 51.7759 1.51748 53.2343 2.2878C54.6927 3.05812 55.8302 4.14228 56.6515 5.53551C57.4727 6.92874 57.8833 8.58826 57.8833 10.5045V11.1132C57.8833 13.001 57.4585 14.651 56.609 16.0632C55.7594 17.4755 54.6031 18.5644 53.1446 19.3347C51.6862 20.105 50.0343 20.4902 48.1888 20.4902H42.3174C41.8312 20.4902 41.4395 20.8848 41.4395 21.3746V30.7659C41.4395 31.2556 41.0477 31.6503 40.5616 31.6503H36.6064C36.1203 31.6503 35.7285 31.2556 35.7285 30.7659ZM41.4395 14.3704C41.4395 14.8602 41.8312 15.2549 42.3174 15.2549H47.6272C48.9818 15.2549 50.0768 14.8792 50.9169 14.1231C51.7523 13.3671 52.1724 12.3352 52.1724 11.0276V10.5901C52.1724 9.2825 51.7523 8.25065 50.9169 7.49459C50.0815 6.73854 48.9818 6.36289 47.6272 6.36289H42.3174C41.8312 6.36289 41.4395 6.75756 41.4395 7.24733V14.3704Z" fill="white"/>
<path id="Vector_5" d="M61.867 30.7516V2.03103C61.867 1.5365 62.2682 1.13232 62.7591 1.13232H74.3273C76.2294 1.13232 77.9097 1.51748 79.3681 2.2878C80.8265 3.05812 81.964 4.14228 82.7852 5.53551C83.6065 6.92874 84.0171 8.58826 84.0171 10.5045V11.1132C84.0171 13.001 83.5923 14.651 82.7428 16.0632C81.8932 17.4755 80.7368 18.5644 79.2784 19.3347C77.82 20.105 76.1681 20.4902 74.3226 20.4902H68.4653C67.9745 20.4902 67.5733 20.8943 67.5733 21.3889V30.7516C67.5733 31.2461 67.1721 31.6503 66.6812 31.6503H62.7543C62.2635 31.6503 61.8623 31.2461 61.8623 30.7516H61.867ZM67.578 14.3561C67.578 14.8507 67.9792 15.2549 68.47 15.2549H73.7657C75.1203 15.2549 76.2153 14.8792 77.0554 14.1231C77.8908 13.3671 78.3109 12.3352 78.3109 11.0276V10.5901C78.3109 9.2825 77.8908 8.25065 77.0554 7.49459C76.22 6.73854 75.1203 6.36289 73.7657 6.36289H68.47C67.9792 6.36289 67.578 6.76707 67.578 7.2616V14.3561Z" fill="white"/>
<path id="Vector_6" d="M98.969 31.6503C96.7224 31.6503 94.74 31.2461 93.0173 30.433C91.2993 29.6246 89.9494 28.4644 88.9819 26.9523C88.0096 25.4449 87.5234 23.6285 87.5234 21.503V21.1939C87.5234 20.7184 87.9057 20.3285 88.3824 20.3285H92.0733C92.5453 20.3285 92.9323 20.7137 92.9323 21.1939V21.503C92.9323 23.2624 93.4751 24.5843 94.556 25.464C95.6368 26.3436 97.1094 26.7859 98.969 26.7859C100.829 26.7859 102.263 26.4102 103.193 25.6542C104.123 24.8981 104.586 23.9376 104.586 22.7631C104.586 21.9547 104.359 21.2938 103.901 20.7945C103.443 20.2905 102.778 19.8815 101.905 19.5582C101.032 19.2348 99.9696 18.9353 98.7236 18.6547L97.7654 18.4455C95.769 17.9985 94.0557 17.4327 92.6256 16.7479C91.1955 16.0632 90.1005 15.1645 89.3406 14.0423C88.576 12.9249 88.1984 11.4698 88.1984 9.68192C88.1984 7.89402 88.6232 6.36289 89.468 5.09329C90.3128 3.82369 91.507 2.84415 93.0456 2.15942C94.5843 1.47469 96.3967 1.13232 98.4781 1.13232C100.56 1.13232 102.41 1.48895 104.033 2.20221C105.657 2.91547 106.931 3.97585 107.861 5.3881C108.791 6.80035 109.253 8.56924 109.253 10.69V11.0847C109.253 11.5602 108.871 11.9501 108.394 11.9501H104.704C104.232 11.9501 103.845 11.5649 103.845 11.0847V10.69C103.845 9.57255 103.627 8.66909 103.198 7.98436C102.768 7.29964 102.15 6.7956 101.348 6.47701C100.541 6.15367 99.5873 5.99675 98.4781 5.99675C96.812 5.99675 95.5849 6.31058 94.7967 6.93825C94.0037 7.56592 93.612 8.42658 93.612 9.51549C93.612 10.243 93.8008 10.8564 94.1737 11.3605C94.5465 11.8645 95.1082 12.2829 95.8586 12.6158C96.6091 12.9486 97.5625 13.2435 98.7283 13.4955L99.6864 13.7047C101.768 14.1517 103.576 14.727 105.119 15.4213C106.658 16.1203 107.856 17.0428 108.72 18.1887C109.579 19.3347 110.009 20.804 110.009 22.5919C110.009 24.3798 109.556 25.9537 108.654 27.3089C107.753 28.6641 106.478 29.7245 104.826 30.4948C103.174 31.2651 101.225 31.6455 98.9784 31.6455L98.969 31.6503Z" fill="white"/>
</g>
</g>
<g id="Group_4">
<path id="Vector_7" d="M72.2419 43.9754C71.7982 43.9754 71.4018 43.8946 71.062 43.7329C70.7221 43.5712 70.4531 43.343 70.2596 43.0434C70.0661 42.7439 69.9717 42.3825 69.9717 41.964V41.731H71.0431V41.964C71.0431 42.3112 71.1516 42.5727 71.364 42.7486C71.5764 42.9246 71.869 43.0101 72.2372 43.0101C72.6053 43.0101 72.8885 42.9341 73.0726 42.7867C73.2567 42.6393 73.3511 42.4443 73.3511 42.2113C73.3511 42.0496 73.3039 41.9212 73.2142 41.8214C73.1245 41.7215 72.9924 41.6407 72.8177 41.5741C72.6431 41.5123 72.4354 41.4505 72.1853 41.3934L71.9965 41.3506C71.6 41.2603 71.2602 41.1509 70.977 41.013C70.6938 40.8751 70.4767 40.6992 70.3257 40.4757C70.1746 40.2522 70.0991 39.9669 70.0991 39.6103C70.0991 39.2537 70.1841 38.9541 70.3493 38.7021C70.5192 38.45 70.7552 38.2551 71.0572 38.1219C71.364 37.9841 71.7227 37.9175 72.1334 37.9175C72.544 37.9175 72.9121 37.9888 73.2331 38.1315C73.554 38.2741 73.8089 38.4833 73.993 38.7639C74.177 39.0444 74.2714 39.3963 74.2714 39.8147V40.062H73.2V39.8147C73.2 39.5913 73.1576 39.4153 73.0726 39.2774C72.9876 39.1395 72.8649 39.0397 72.7044 38.9779C72.544 38.916 72.3552 38.8828 72.1334 38.8828C71.803 38.8828 71.5575 38.9446 71.4018 39.0682C71.246 39.1918 71.1658 39.363 71.1658 39.5818C71.1658 39.7244 71.2036 39.848 71.2791 39.9479C71.3546 40.0477 71.4631 40.1286 71.6142 40.1952C71.7652 40.2617 71.954 40.3188 72.1853 40.3711L72.3741 40.4139C72.7847 40.5042 73.1481 40.6184 73.4502 40.7563C73.7522 40.8941 73.993 41.0796 74.1629 41.3031C74.3328 41.5313 74.4177 41.8214 74.4177 42.178C74.4177 42.5346 74.3281 42.8437 74.1487 43.1148C73.9694 43.3858 73.7145 43.595 73.3888 43.7472C73.0632 43.8993 72.6761 43.9754 72.2278 43.9754H72.2419Z" fill="white"/>
<path id="Vector_8" d="M77.217 43.9753C76.8111 43.9753 76.443 43.8944 76.122 43.728C75.8011 43.5616 75.5415 43.3191 75.3527 43.0052C75.1639 42.6914 75.0742 42.311 75.0742 41.864V41.7309C75.0742 41.2887 75.1686 40.9083 75.3527 40.5897C75.5415 40.2758 75.7964 40.0333 76.122 39.8669C76.4477 39.7005 76.8111 39.6196 77.217 39.6196C77.6229 39.6196 77.9911 39.7005 78.312 39.8669C78.6377 40.0333 78.8926 40.2758 79.0813 40.5897C79.2701 40.9035 79.3598 41.2839 79.3598 41.7309V41.864C79.3598 42.3062 79.2654 42.6866 79.0813 43.0052C78.8926 43.3191 78.6377 43.5616 78.312 43.728C77.9863 43.8944 77.6229 43.9753 77.217 43.9753ZM77.217 43.0433C77.538 43.0433 77.7976 42.9387 78.0099 42.7294C78.2176 42.5202 78.3215 42.2254 78.3215 41.8355V41.7547C78.3215 41.3647 78.2176 41.0699 78.0147 40.8607C77.807 40.6515 77.5427 40.5469 77.217 40.5469C76.8914 40.5469 76.6318 40.6515 76.4241 40.8607C76.2164 41.0699 76.1126 41.3647 76.1126 41.7547V41.8355C76.1126 42.2254 76.2164 42.5202 76.4241 42.7294C76.6318 42.9387 76.8961 43.0433 77.217 43.0433Z" fill="white"/>
<path id="Vector_9" d="M80.8606 43.8565V40.5992H79.8223V39.7338H80.8606V38.9683C80.8606 38.6877 80.9456 38.4595 81.1108 38.293C81.276 38.1219 81.4978 38.041 81.7668 38.041H82.8382V38.9064H82.1303C81.9745 38.9064 81.899 38.9873 81.899 39.1537V39.7338H82.9704V40.5992H81.899V43.8565H80.8606Z" fill="white"/>
<path id="Vector_10" d="M85.2683 43.8565C84.9993 43.8565 84.7822 43.7709 84.6122 43.6044C84.4423 43.438 84.3621 43.2098 84.3621 42.9292V40.604H83.3379V39.7386H84.3621V38.4595H85.4004V39.7386H86.5238V40.604H85.4004V42.7485C85.4004 42.915 85.476 42.9958 85.6317 42.9958H86.4246V43.8612H85.2683V43.8565Z" fill="white"/>
<path id="Vector_11" d="M87.7936 43.8565L87.2178 39.7339H88.2467L88.6101 43.1528H88.7564L89.2851 39.7339H90.9511L91.4798 43.1528H91.6308L91.9942 39.7339H93.0279L92.4521 43.8565H90.7293L90.2007 40.4424H90.0497L89.521 43.8565H87.7983H87.7936Z" fill="white"/>
<path id="Vector_12" d="M95.2039 43.9755C94.9112 43.9755 94.6516 43.9232 94.4204 43.8234C94.1891 43.7187 94.005 43.5713 93.8729 43.3764C93.736 43.1814 93.6699 42.9389 93.6699 42.6584C93.6699 42.3778 93.736 42.1401 93.8729 41.9499C94.0097 41.7597 94.1938 41.6123 94.4345 41.5172C94.6752 41.4221 94.949 41.3697 95.2558 41.3697H96.3791V41.1367C96.3791 40.9418 96.3177 40.7849 96.1997 40.6565C96.0817 40.5281 95.8882 40.471 95.6239 40.471C95.3596 40.471 95.1708 40.5329 95.0481 40.6517C94.9207 40.7706 94.8404 40.9228 94.8027 41.113L93.8446 40.7896C93.9106 40.5804 94.0145 40.3854 94.1608 40.2143C94.3071 40.0383 94.5006 39.9004 94.746 39.7911C94.9915 39.6817 95.2888 39.6294 95.6428 39.6294C96.1809 39.6294 96.6104 39.7673 96.9219 40.0383C97.2334 40.3094 97.3939 40.704 97.3939 41.2176V42.7535C97.3939 42.9199 97.4694 43.0007 97.6251 43.0007H97.9555V43.8662H97.2617C97.0587 43.8662 96.8888 43.8186 96.7567 43.7187C96.6245 43.6189 96.5584 43.4857 96.5584 43.3193V43.3098H96.4027C96.3791 43.3764 96.3319 43.462 96.2517 43.5713C96.1761 43.6807 96.0534 43.7758 95.8882 43.8566C95.723 43.9375 95.4965 43.9803 95.2133 43.9803L95.2039 43.9755ZM95.3879 43.1291C95.6806 43.1291 95.9166 43.0483 96.1006 42.8819C96.2847 42.7154 96.3791 42.5015 96.3791 42.2304V42.1496H95.3313C95.1378 42.1496 94.9867 42.1924 94.8782 42.2732C94.7696 42.354 94.713 42.4729 94.713 42.6203C94.713 42.7677 94.7696 42.8914 94.8876 42.9865C95.0056 43.0816 95.1708 43.1291 95.3927 43.1291H95.3879Z" fill="white"/>
<path id="Vector_13" d="M98.7012 43.8566V39.734H99.7254V40.2H99.8717C99.933 40.0336 100.032 39.9099 100.174 39.8338C100.315 39.7578 100.476 39.7197 100.665 39.7197H101.16V40.6517H100.65C100.386 40.6517 100.169 40.723 99.9991 40.8657C99.8292 41.0083 99.7443 41.2223 99.7443 41.5171V43.8614H98.7059L98.7012 43.8566Z" fill="white"/>
<path id="Vector_14" d="M103.686 43.9756C103.28 43.9756 102.921 43.89 102.609 43.7141C102.298 43.5382 102.057 43.2909 101.883 42.9723C101.708 42.6537 101.623 42.2781 101.623 41.8454V41.7455C101.623 41.3128 101.708 40.9371 101.878 40.6186C102.048 40.3 102.289 40.0527 102.595 39.8768C102.902 39.7008 103.261 39.6152 103.667 39.6152C104.073 39.6152 104.417 39.7056 104.715 39.8863C105.012 40.067 105.243 40.3142 105.408 40.6328C105.574 40.9514 105.654 41.3223 105.654 41.7407V42.0974H102.676C102.685 42.3779 102.794 42.6109 102.987 42.7869C103.185 42.9628 103.426 43.0531 103.714 43.0531C104.002 43.0531 104.219 42.9913 104.356 42.8629C104.493 42.7346 104.597 42.5967 104.672 42.4397L105.522 42.8867C105.446 43.0294 105.333 43.1863 105.187 43.3575C105.04 43.5286 104.847 43.6713 104.606 43.7902C104.365 43.9091 104.054 43.9709 103.681 43.9709L103.686 43.9756ZM102.685 41.3223H104.601C104.578 41.0845 104.483 40.8943 104.318 40.7469C104.148 40.6043 103.931 40.533 103.662 40.533C103.393 40.533 103.157 40.6043 102.992 40.7469C102.827 40.8896 102.723 41.0798 102.685 41.3223Z" fill="white"/>
<path id="Vector_15" d="M108.278 43.9754C107.745 43.9754 107.306 43.8613 106.966 43.6283C106.626 43.3953 106.418 43.0624 106.348 42.6297L107.306 42.3824C107.344 42.5774 107.41 42.7296 107.499 42.8389C107.589 42.9483 107.702 43.0291 107.839 43.0767C107.971 43.1242 108.122 43.148 108.278 43.148C108.519 43.148 108.698 43.1052 108.816 43.0196C108.929 42.934 108.991 42.8294 108.991 42.701C108.991 42.5726 108.934 42.4775 108.826 42.4062C108.717 42.3349 108.538 42.2826 108.297 42.235L108.066 42.1922C107.778 42.1352 107.518 42.0591 107.282 41.964C107.046 41.8689 106.857 41.731 106.711 41.5598C106.569 41.3886 106.499 41.1652 106.499 40.8941C106.499 40.4852 106.65 40.1713 106.942 39.9526C107.24 39.7339 107.631 39.6245 108.113 39.6245C108.571 39.6245 108.948 39.7291 109.25 39.9336C109.552 40.1381 109.751 40.4091 109.845 40.7419L108.877 41.0415C108.835 40.8323 108.745 40.6801 108.608 40.5945C108.472 40.5042 108.306 40.4614 108.108 40.4614C107.91 40.4614 107.759 40.4947 107.655 40.566C107.551 40.6373 107.499 40.7324 107.499 40.8513C107.499 40.9845 107.556 41.0843 107.664 41.1461C107.773 41.2079 107.924 41.2603 108.108 41.2935L108.339 41.3363C108.646 41.3934 108.925 41.4647 109.175 41.5551C109.425 41.6454 109.623 41.7786 109.77 41.945C109.916 42.1162 109.987 42.3444 109.987 42.6297C109.987 43.0624 109.831 43.3953 109.519 43.633C109.208 43.8708 108.793 43.9849 108.269 43.9849L108.278 43.9754Z" fill="white"/>
</g>
<g id="Group_5">
<path id="Vector_16" d="M28.1346 43.8568V38.0366H30.5087C30.8721 38.0366 31.193 38.1079 31.4715 38.2554C31.75 38.4028 31.9671 38.6072 32.1228 38.8735C32.2786 39.1398 32.3588 39.4536 32.3588 39.8198V39.9339C32.3588 40.2953 32.2786 40.6091 32.1134 40.8754C31.9482 41.1417 31.7311 41.3509 31.4526 41.4983C31.1742 41.6457 30.8579 41.717 30.5087 41.717H29.2202V43.8473H28.1299L28.1346 43.8568ZM29.2249 40.7327H30.4048C30.6644 40.7327 30.8721 40.6614 31.0326 40.5188C31.193 40.3761 31.2733 40.1764 31.2733 39.9291V39.8483C31.2733 39.601 31.193 39.4013 31.0326 39.2587C30.8721 39.116 30.6644 39.0447 30.4048 39.0447H29.2249V40.7422V40.7327Z" fill="white"/>
<path id="Vector_17" d="M34.3367 43.9755C34.044 43.9755 33.7845 43.9232 33.5532 43.8234C33.3219 43.7187 33.1378 43.5713 33.0057 43.3764C32.8688 43.1814 32.8027 42.9389 32.8027 42.6584C32.8027 42.3778 32.8688 42.1401 33.0057 41.9499C33.1426 41.7597 33.3266 41.6123 33.5673 41.5172C33.8081 41.4221 34.0818 41.3697 34.3886 41.3697H35.5119V41.1367C35.5119 40.9418 35.4506 40.7849 35.3326 40.6565C35.2146 40.5281 35.021 40.471 34.7567 40.471C34.4924 40.471 34.3036 40.5329 34.1809 40.6517C34.0582 40.7706 33.9732 40.9228 33.9355 41.113L32.9774 40.7896C33.0434 40.5804 33.1473 40.3854 33.2936 40.2143C33.4399 40.0383 33.6334 39.9004 33.8789 39.7911C34.1243 39.6817 34.4216 39.6294 34.7756 39.6294C35.3137 39.6294 35.7432 39.7673 36.0547 40.0383C36.3662 40.3094 36.5267 40.704 36.5267 41.2176V42.7535C36.5267 42.9199 36.6022 43.0007 36.7579 43.0007H37.0883V43.8662H36.3945C36.1916 43.8662 36.0216 43.8186 35.8895 43.7187C35.7573 43.6189 35.6913 43.4857 35.6913 43.3193V43.3098H35.5355C35.5119 43.3764 35.4647 43.462 35.3892 43.5713C35.3137 43.6807 35.191 43.7758 35.0258 43.8566C34.8606 43.9375 34.634 43.9803 34.3508 43.9803L34.3367 43.9755ZM34.516 43.1291C34.8087 43.1291 35.0446 43.0483 35.2287 42.8819C35.4128 42.7202 35.5072 42.5015 35.5072 42.2304V42.1496H34.4594C34.2659 42.1496 34.1148 42.1924 34.0063 42.2732C33.8977 42.354 33.8411 42.4729 33.8411 42.6203C33.8411 42.7677 33.8977 42.8914 34.0157 42.9865C34.129 43.0816 34.2989 43.1291 34.5207 43.1291H34.516Z" fill="white"/>
<path id="Vector_18" d="M37.834 43.8566V39.734H38.8582V40.2H39.0045C39.0659 40.0336 39.165 39.9099 39.3066 39.8338C39.4482 39.7578 39.6086 39.7197 39.7974 39.7197H40.293V40.6517H39.7833C39.519 40.6517 39.3018 40.723 39.1319 40.8657C38.962 41.0083 38.8771 41.2223 38.8771 41.5171V43.8614H37.8387L37.834 43.8566Z" fill="white"/>
<path id="Vector_19" d="M42.6716 43.857C42.4026 43.857 42.1855 43.7714 42.0156 43.6049C41.8456 43.4385 41.7654 43.2103 41.7654 42.9297V40.6045H40.7412V39.7391H41.7654V38.46H42.8038V39.7391H43.9271V40.6045H42.8038V42.749C42.8038 42.9155 42.8793 42.9963 43.035 42.9963H43.828V43.8617H42.6716V43.857Z" fill="white"/>
<path id="Vector_20" d="M44.8662 43.8567V39.7341H45.8904V40.2761H46.0367C46.1028 40.1335 46.2255 39.9956 46.4096 39.8624C46.5889 39.734 46.8674 39.6675 47.2356 39.6675C47.5565 39.6675 47.835 39.7388 48.071 39.8862C48.3117 40.0336 48.4957 40.2333 48.6279 40.4949C48.7601 40.7564 48.8261 41.0512 48.8261 41.3983V43.8567H47.7878V41.4792C47.7878 41.1701 47.7123 40.9371 47.5612 40.7802C47.4102 40.6232 47.1931 40.5472 46.9146 40.5472C46.5937 40.5472 46.3482 40.6518 46.1736 40.8658C45.999 41.0797 45.9093 41.3745 45.9093 41.7597V43.8567H44.8709H44.8662Z" fill="white"/>
<path id="Vector_21" d="M51.8135 43.9756C51.4076 43.9756 51.0489 43.89 50.7374 43.7141C50.4259 43.5382 50.1852 43.2909 50.0106 42.9723C49.8359 42.6537 49.751 42.2781 49.751 41.8454V41.7455C49.751 41.3128 49.8359 40.9371 50.0058 40.6186C50.1758 40.3 50.4165 40.0527 50.7233 39.8768C51.03 39.7008 51.3887 39.6152 51.7947 39.6152C52.2006 39.6152 52.5451 39.7056 52.8425 39.8863C53.1398 40.067 53.3711 40.3142 53.5363 40.6328C53.7015 40.9514 53.7817 41.3223 53.7817 41.7407V42.0974H50.8035C50.8129 42.3779 50.9168 42.6109 51.115 42.7869C51.3132 42.9628 51.5539 43.0531 51.8419 43.0531C52.1298 43.0531 52.3469 42.9913 52.4837 42.8629C52.6206 42.7346 52.7245 42.5967 52.7953 42.4397L53.6448 42.8867C53.5693 43.0294 53.456 43.1863 53.3097 43.3575C53.1634 43.5286 52.9699 43.6713 52.7292 43.7902C52.4885 43.9091 52.177 43.9709 51.8041 43.9709L51.8135 43.9756ZM50.8129 41.3223H52.7292C52.7056 41.0845 52.6112 40.8943 52.446 40.7469C52.2808 40.5995 52.059 40.533 51.7899 40.533C51.5209 40.533 51.2849 40.6043 51.1197 40.7469C50.9545 40.8896 50.8507 41.0798 50.8129 41.3223Z" fill="white"/>
<path id="Vector_22" d="M54.707 43.8566V39.734H55.7312V40.2H55.8823C55.9436 40.0336 56.0427 39.9099 56.1843 39.8338C56.3259 39.7578 56.4864 39.7197 56.6752 39.7197H57.1708V40.6517H56.661C56.3967 40.6517 56.1796 40.723 56.0097 40.8657C55.8398 41.0083 55.7548 41.2223 55.7548 41.5171V43.8614H54.7165L54.707 43.8566Z" fill="white"/>
<path id="Vector_23" d="M59.5779 43.9759C59.0445 43.9759 58.6056 43.8618 58.2658 43.6288C57.9259 43.3958 57.7183 43.0629 57.6475 42.6302L58.6056 42.3829C58.6433 42.5779 58.7094 42.7301 58.7991 42.8394C58.8888 42.9488 59.002 43.0296 59.1389 43.0772C59.2758 43.1247 59.4221 43.1485 59.5779 43.1485C59.8186 43.1485 59.9979 43.1057 60.1159 43.0201C60.2292 42.9345 60.2906 42.8299 60.2906 42.7015C60.2906 42.5731 60.2339 42.478 60.1254 42.4067C60.0168 42.3354 59.8375 42.2831 59.5967 42.2355L59.3655 42.1927C59.0776 42.1357 58.818 42.0596 58.582 41.9645C58.346 41.8694 58.1572 41.7315 58.0109 41.5603C57.8693 41.3891 57.7985 41.1656 57.7985 40.8946C57.7985 40.4857 57.9448 40.1718 58.2422 39.9531C58.5395 39.7344 58.9312 39.625 59.4127 39.625C59.8705 39.625 60.2481 39.7296 60.5501 39.9341C60.8522 40.1385 61.0504 40.4096 61.1448 40.7424L60.1773 41.042C60.1348 40.8328 60.0451 40.6806 59.9083 40.595C59.7714 40.5047 59.6062 40.4619 59.408 40.4619C59.2097 40.4619 59.0587 40.4952 58.9549 40.5665C58.851 40.6378 58.7991 40.7329 58.7991 40.8518C58.7991 40.9849 58.8557 41.0848 58.9643 41.1466C59.0728 41.2084 59.2239 41.2607 59.408 41.294L59.6392 41.3368C59.946 41.3939 60.2245 41.4652 60.4746 41.5556C60.7248 41.6459 60.923 41.779 61.0693 41.9455C61.2156 42.1167 61.2864 42.3449 61.2864 42.6302C61.2864 43.0629 61.1307 43.3958 60.8192 43.6335C60.5077 43.8713 60.0923 43.9854 59.5684 43.9854L59.5779 43.9759Z" fill="white"/>
</g>
<g id="Group_6">
<path id="Vector_24" d="M0.542969 43.7426V37.9224H2.92176C3.28518 37.9224 3.60613 37.9937 3.8846 38.1411C4.16307 38.2885 4.38018 38.493 4.53593 38.7593C4.69169 39.0255 4.77192 39.3394 4.77192 39.7055V39.8196C4.77192 40.181 4.69169 40.4949 4.52649 40.7611C4.3613 41.0274 4.14419 41.2366 3.86572 41.384C3.58725 41.5315 3.27102 41.6028 2.92176 41.6028H1.63325V43.733H0.542969V43.7426ZM1.63325 40.6185H2.8132C3.07279 40.6185 3.28046 40.5472 3.44094 40.4045C3.60141 40.2619 3.68165 40.0621 3.68165 39.8149V39.734C3.68165 39.4868 3.60141 39.2871 3.44094 39.1444C3.28046 39.0018 3.07279 38.9304 2.8132 38.9304H1.63325V40.628V40.6185Z" fill="white"/>
<path id="Vector_25" d="M6.74976 43.8569C6.45713 43.8569 6.19754 43.8046 5.96627 43.7047C5.735 43.6001 5.55093 43.4527 5.41877 43.2577C5.2819 43.0628 5.21582 42.8203 5.21582 42.5397C5.21582 42.2592 5.2819 42.0214 5.41877 41.8312C5.55565 41.641 5.73972 41.4936 5.98043 41.3985C6.22114 41.3034 6.49489 41.2511 6.80168 41.2511H7.92499V41.0181C7.92499 40.8231 7.86364 40.6662 7.74564 40.5378C7.62765 40.4094 7.43413 40.3524 7.16982 40.3524C6.90551 40.3524 6.71672 40.4142 6.59401 40.5331C6.47129 40.652 6.38633 40.8041 6.34858 40.9943L5.39045 40.671C5.45653 40.4618 5.56037 40.2668 5.70668 40.0956C5.853 39.9197 6.04651 39.7818 6.29194 39.6724C6.53737 39.563 6.83472 39.5107 7.1887 39.5107C7.72676 39.5107 8.15627 39.6486 8.46777 39.9197C8.77928 40.1907 8.93975 40.5854 8.93975 41.0989V42.6348C8.93975 42.8012 9.01527 42.8821 9.17103 42.8821H9.50141V43.7475H8.8076C8.60465 43.7475 8.43473 43.6999 8.30258 43.6001C8.17042 43.5002 8.10435 43.3671 8.10435 43.2007V43.1912H7.94859C7.92499 43.2577 7.8778 43.3433 7.80228 43.4527C7.72676 43.5621 7.60405 43.6572 7.43885 43.738C7.27366 43.8188 7.04711 43.8616 6.76392 43.8616L6.74976 43.8569ZM6.92911 43.0105C7.22174 43.0105 7.45773 42.9296 7.64181 42.7632C7.82588 42.6015 7.92027 42.3828 7.92027 42.1118V42.0309H6.87248C6.67896 42.0309 6.52793 42.0737 6.41937 42.1546C6.31082 42.2354 6.25418 42.3543 6.25418 42.5017C6.25418 42.6491 6.31082 42.7727 6.42881 42.8678C6.54209 42.9629 6.712 43.0105 6.93383 43.0105H6.92911Z" fill="white"/>
<path id="Vector_26" d="M10.2471 43.7424V39.6197H11.2713V40.0857H11.4176C11.4789 39.9193 11.5781 39.7957 11.7197 39.7196C11.8612 39.6435 12.0217 39.6055 12.2105 39.6055H12.7061V40.5375H12.1964C11.932 40.5375 11.7149 40.6088 11.545 40.7514C11.3751 40.8941 11.2901 41.1081 11.2901 41.4029V43.7471H10.2518L10.2471 43.7424Z" fill="white"/>
<path id="Vector_27" d="M14.0327 39.1349C13.8439 39.1349 13.6881 39.0731 13.5607 38.9542C13.4333 38.8306 13.3672 38.6737 13.3672 38.4739C13.3672 38.2742 13.4333 38.1126 13.5607 37.9937C13.6881 37.87 13.8486 37.813 14.0327 37.813C14.2168 37.813 14.3867 37.8748 14.5094 37.9937C14.6368 38.1173 14.6982 38.2742 14.6982 38.4739C14.6982 38.6737 14.6368 38.8353 14.5094 38.9542C14.3819 39.0731 14.2215 39.1349 14.0327 39.1349ZM13.5135 43.7378V39.6152H14.5519V43.7378H13.5135Z" fill="white"/>
<path id="Vector_28" d="M17.407 43.8567C16.8736 43.8567 16.4347 43.7426 16.0949 43.5096C15.755 43.2766 15.5474 42.9438 15.4766 42.5111L16.4347 42.2638C16.4724 42.4588 16.5385 42.6109 16.6282 42.7203C16.7179 42.8296 16.8311 42.9105 16.968 42.958C17.1049 43.0056 17.2512 43.0294 17.4117 43.0294C17.6524 43.0294 17.8317 42.9866 17.9497 42.901C18.0677 42.8154 18.1244 42.7108 18.1244 42.5824C18.1244 42.454 18.0677 42.3589 17.9592 42.2876C17.8506 42.2162 17.6713 42.1639 17.4306 42.1164L17.1993 42.0736C16.9114 42.0165 16.6518 41.9404 16.4158 41.8453C16.1798 41.7502 15.991 41.6124 15.8447 41.4412C15.7031 41.27 15.6323 41.0465 15.6323 40.7755C15.6323 40.3665 15.7786 40.0527 16.076 39.834C16.3733 39.6152 16.7651 39.5059 17.2465 39.5059C17.7043 39.5059 18.0819 39.6105 18.384 39.8149C18.686 40.0194 18.8843 40.2904 18.9787 40.6233L18.0111 40.9229C17.9686 40.7136 17.8789 40.5615 17.7421 40.4759C17.6052 40.3855 17.44 40.3428 17.2418 40.3428C17.0435 40.3428 16.8925 40.376 16.7887 40.4474C16.6848 40.5187 16.6329 40.6138 16.6329 40.7327C16.6329 40.8658 16.6896 40.9657 16.7981 41.0275C16.9067 41.0893 17.0577 41.1416 17.2418 41.1749L17.473 41.2177C17.7798 41.2747 18.0583 41.3461 18.3085 41.4364C18.5586 41.5268 18.7568 41.6599 18.9031 41.8263C19.0495 41.9975 19.1203 42.2258 19.1203 42.5111C19.1203 42.9438 18.9645 43.2766 18.653 43.5144C18.3415 43.7521 17.9261 43.8662 17.4022 43.8662L17.407 43.8567Z" fill="white"/>
</g>
</g>
<defs>
<clipPath id="clip0_938_1990">
<rect width="110" height="43" fill="white" transform="translate(0 0.975586)"/>
</clipPath>
</defs>
</svg>
