<svg width="35" height="57" viewBox="0 0 35 57" fill="none" xmlns="http://www.w3.org/2000/svg">
<g id="Frame 3640">
<path id="Vector" d="M33.998 9.00297C33.9987 9.00326 33.9994 9.00357 34 9.00388V37.9937C33.9993 37.994 33.9986 37.9943 33.9979 37.9946C33.9829 38.0005 33.9707 38.0004 33.9663 37.9996L33.9649 37.9993L33.9646 37.9992L33.9623 37.9977C33.9609 37.9968 33.9583 37.9948 33.9546 37.9912L4.0282 9H33.9798C33.9895 9 33.995 9.00173 33.998 9.00297ZM3.99901 9.00205C3.99901 9.00205 3.99901 9.00205 3.99901 9.00205C3.99899 9.00209 3.99899 9.00211 3.99899 9.0021C3.99899 9.0021 3.99899 9.00209 3.99901 9.00205Z" stroke="black" stroke-width="2"/>
<path id="Vector_2" d="M2 36.9958V13.0042L13.9979 24.9928C13.9986 24.9935 13.9988 24.994 13.9989 24.9941L13.9992 24.9947C13.9995 24.9955 14 24.9971 14 24.9993C14 24.9995 14 24.9997 14 24.9999L2 36.9958ZM14.002 24.9979L14.0019 24.9979C14.002 24.9979 14.002 24.9979 14.002 24.9979Z" stroke="black" stroke-width="2"/>
<path id="Vector_3" d="M30.6942 39.4173L18.2323 28.2703C17.8294 27.9099 17.1706 27.9099 16.7623 28.2703L4.30576 39.4173C3.65244 40.0017 4.11521 41 5.04074 41H29.9593C30.8848 41 31.3476 40.0017 30.6942 39.4173Z" fill="#474747"/>
</g>
</svg>
