<svg width="48" height="48" viewBox="0 0 48 48" fill="none" xmlns="http://www.w3.org/2000/svg">
<g id="Frame 3635" clip-path="url(#clip0_1353_492)">
<path id="Vector" d="M49 43.5642V1.43461C49 0.645952 48.3474 0 47.5335 0H4.46773C3.16248 0 2.50985 1.53977 3.43121 2.44861L46.497 44.5782C47.4183 45.4795 49 44.8411 49 43.5642Z" fill="#0025FF"/>
<path id="Vector_2" d="M2.43491 42.581L19.5842 25.5035C20.1386 24.9514 20.1386 24.0486 19.5842 23.4891L2.43491 6.419C1.53587 5.52372 0 6.15788 0 7.4262V41.5738C0 42.8421 1.53587 43.4763 2.43491 42.581Z" fill="#FF0000"/>
<path id="Vector_3" d="M41.5697 45.5651L24.0306 28.4158C23.4636 27.8614 22.5364 27.8614 21.9618 28.4158L4.43033 45.5651C3.51085 46.4641 4.16215 48 5.46474 48H40.5353C41.8379 48 42.4892 46.4641 41.5697 45.5651Z" fill="#474747"/>
</g>
<defs>
<clipPath id="clip0_1353_492">
<rect width="48" height="48" fill="white"/>
</clipPath>
</defs>
</svg>
