<svg width="35" height="56" viewBox="0 0 35 56" fill="none" xmlns="http://www.w3.org/2000/svg">
<g id="Frame 3640">
<path id="Vector" d="M33.498 8.50297C33.4987 8.50326 33.4994 8.50357 33.5 8.50388V37.4937C33.4993 37.494 33.4986 37.4943 33.4979 37.4946C33.4829 37.5005 33.4707 37.5004 33.4663 37.4996L33.4649 37.4993L33.4646 37.4992L33.4623 37.4977C33.4609 37.4968 33.4583 37.4948 33.4546 37.4912L3.5282 8.5H33.4798C33.4895 8.5 33.495 8.50173 33.498 8.50297ZM3.49901 8.50205C3.49901 8.50205 3.49901 8.50205 3.49901 8.50205C3.49899 8.50209 3.49899 8.50211 3.49899 8.5021C3.49899 8.5021 3.49899 8.50209 3.49901 8.50205Z" fill="#0025FF" stroke="#0025FF" stroke-width="2"/>
<path id="Vector_2" d="M1.5 36.4958V12.5042L13.4979 24.4928C13.4986 24.4935 13.4988 24.494 13.4989 24.4941L13.4992 24.4947C13.4995 24.4955 13.5 24.4971 13.5 24.4993C13.5 24.4995 13.5 24.4997 13.5 24.4999L1.5 36.4958ZM13.502 24.4979L13.5019 24.4979C13.502 24.4979 13.502 24.4979 13.502 24.4979Z" stroke="black" stroke-width="2"/>
<path id="Vector_3" d="M29.3457 39.5H4.6542L16.9246 28.5196C16.9298 28.5154 16.9542 28.5 16.9993 28.5C17.0428 28.5 17.0634 28.5141 17.0654 28.5155C17.0656 28.5157 17.0657 28.5157 17.0656 28.5156L29.3457 39.5Z" stroke="black" stroke-width="2"/>
</g>
</svg>
