<svg width="35" height="57" viewBox="0 0 35 57" fill="none" xmlns="http://www.w3.org/2000/svg">
<g id="Frame 3640">
<path id="Vector" d="M33.998 9.00297C33.9987 9.00326 33.9994 9.00357 34 9.00388V37.9937C33.9993 37.994 33.9986 37.9943 33.9979 37.9946C33.9829 38.0005 33.9707 38.0004 33.9663 37.9996L33.9649 37.9993L33.9646 37.9992L33.9623 37.9977C33.9609 37.9968 33.9583 37.9948 33.9546 37.9912L4.0282 9H33.9798C33.9895 9 33.995 9.00173 33.998 9.00297ZM3.99901 9.00205C3.99901 9.00205 3.99901 9.00205 3.99901 9.00205C3.99899 9.00209 3.99899 9.00211 3.99899 9.0021C3.99899 9.0021 3.99899 9.00209 3.99901 9.00205Z" stroke="black" stroke-width="2"/>
<path id="Vector_2" d="M2.70444 37.7056L14.7089 25.7051C15.097 25.3172 15.097 24.6828 14.7089 24.2896L2.70444 12.2944C2.07511 11.6653 1 12.1109 1 13.0022V36.9978C1 37.8891 2.07511 38.3347 2.70444 37.7056Z" fill="#FF0000"/>
<path id="Vector_3" d="M29.8457 40H5.1542L17.4246 29.0196C17.4298 29.0154 17.4542 29 17.4993 29C17.5428 29 17.5634 29.0141 17.5654 29.0155C17.5656 29.0157 17.5657 29.0157 17.5656 29.0156L29.8457 40Z" stroke="black" stroke-width="2"/>
</g>
</svg>
