<svg width="61" height="60" viewBox="0 0 61 60" fill="none" xmlns="http://www.w3.org/2000/svg">
<g id="Group 3605">
<ellipse id="Ellipse 8" cx="30.5" cy="30" rx="30.5" ry="30" fill="#0025FF"/>
<path id="Arrow 1" d="M21.375 28.5C20.5466 28.5 19.875 29.1716 19.875 30C19.875 30.8284 20.5466 31.5 21.375 31.5V28.5ZM41.4357 31.0607C42.0214 30.4749 42.0214 29.5251 41.4357 28.9393L31.8897 19.3934C31.3039 18.8076 30.3542 18.8076 29.7684 19.3934C29.1826 19.9792 29.1826 20.9289 29.7684 21.5147L38.2537 30L29.7684 38.4853C29.1826 39.0711 29.1826 40.0208 29.7684 40.6066C30.3542 41.1924 31.3039 41.1924 31.8897 40.6066L41.4357 31.0607ZM21.375 31.5L40.375 31.5V28.5L21.375 28.5V31.5Z" fill="white"/>
</g>
</svg>
