<svg width="61" height="60" viewBox="0 0 61 60" fill="none" xmlns="http://www.w3.org/2000/svg">
<g id="Group 3605">
<ellipse id="Ellipse 8" cx="30.5" cy="30" rx="30.5" ry="30" fill="#0025FF"/>
<path id="Arrow 1" d="M40.375 31.5C41.2034 31.5 41.875 30.8284 41.875 30C41.875 29.1716 41.2034 28.5 40.375 28.5L40.375 31.5ZM20.3143 28.9393C19.7286 29.5251 19.7286 30.4749 20.3143 31.0607L29.8603 40.6066C30.4461 41.1924 31.3958 41.1924 31.9816 40.6066C32.5674 40.0208 32.5674 39.0711 31.9816 38.4853L23.4963 30L31.9816 21.5147C32.5674 20.9289 32.5674 19.9792 31.9816 19.3934C31.3958 18.8076 30.4461 18.8076 29.8603 19.3934L20.3143 28.9393ZM40.375 28.5L21.375 28.5L21.375 31.5L40.375 31.5L40.375 28.5Z" fill="white"/>
</g>
</svg>
